#!OML:ASF H:\LiuWeirdWalks\Patient Classification 1\Patient 1\Session 1\male.ASF
:FULLY-SPECIFIED
:DEGREES
3578
root 0.33681 17.8806 -29.986 545.002 174.089 178.21
lowerback 2.78504 4.106 2.56038
upperback -2.2646 5.53093 -2.16033
thorax -3.4384 2.66735 -3.95658
lowerneck -21.025 -5.20947 8.93227
upperneck 27.5426 -10.0819 -1.7713
head 12.0266 -3.76386 -3.74419
rclavicle -2.38542e-014 1.19271e-014
rhumerus -38.0259 -20.7894 -75.4517
rradius 30.8908
rwrist -5.98545
rhand -16.326 -2.90391
rfingers 7.12502
rthumb 9.88568 -32.6518
lclavicle -2.38542e-014 1.19271e-014
lhumerus -36.6467 -0.123555 79.5139
lradius 20.4621
lwrist 6.75087
lhand -13.4308 0.723386
lfingers 7.12502
lthumb 12.6779 30.3186
rfemur -11.8577 -5.00066 21.1831
rtibia 30.1186
rfoot -18.849 -11.4861
rtoes -3.24204
lfemur -13.2248 -4.31744 -19.574
ltibia 30.7767
lfoot -15.2094 15.3546
ltoes -4.80989
3579
root 0.360685 17.8754 -29.9704 545.003 174.234 178.217
lowerback 2.77808 4.05543 2.51525
upperback -2.28528 5.46248 -2.11699
thorax -3.46991 2.63371 -3.88464
lowerneck -21.0187 -5.12636 8.98013
upperneck 27.539 -9.95471 -1.85278
head 12.0237 -3.71439 -3.76328
rclavicle 4.34593e-014 -1.03368e-014
rhumerus -37.9952 -20.426 -75.5695
rradius 31.2278
rwrist -6.27258
rhand -16.3097 -2.85244
rfingers 7.12502
rthumb 9.90133 -32.5996
lclavicle 4.34593e-014 -1.03368e-014
lhumerus -36.7531 0.332521 79.3222
lradius 20.2699
lwrist 6.63576
lhand -13.4549 0.575635
lfingers 7.12502
lthumb 12.6547 30.1723
rfemur -11.8552 -4.93723 21.0856
rtibia 30.2214
rfoot -18.8894 -11.5043
rtoes -3.25485
lfemur -13.1411 -4.28011 -19.6795
ltibia 30.7831
lfoot -15.2728 15.4669
ltoes -4.67485
3580
root 0.38535 17.8697 -29.9536 545.003 174.4 178.205
lowerback 2.75059 4.00667 2.47603
upperback -2.28856 5.39663 -2.06341
thorax -3.47179 2.60229 -3.80278
lowerneck -21.0523 -5.04512 9.03317
upperneck 27.5469 -9.83501 -1.94267
head 12.032 -3.66761 -3.78978
rclavicle 5.88154e-014 -2.38542e-015
rhumerus -37.9432 -20.0544 -75.6931
rradius 31.5716
rwrist -6.56054
rhand -16.2947 -2.82983
rfingers 7.12502
rthumb 9.91586 -32.5763
lclavicle 5.88154e-014 -2.38542e-015
lhumerus -36.8392 0.769683 79.1526
lradius 20.1046
lwrist 6.56812
lhand -13.4684 0.493933
lfingers 7.12502
lthumb 12.6416 30.0914
rfemur -11.8616 -4.84424 21.0095
rtibia 30.3379
rfoot -18.9182 -11.5525
rtoes -3.30143
lfemur -13.0544 -4.21412 -19.7658
ltibia 30.7858
lfoot -15.3391 15.5627
ltoes -4.5457
3581
root 0.409896 17.8635 -29.9364 545.004 174.533 178.174
lowerback 2.73867 3.98832 2.46712
upperback -2.32909 5.37201 -2.04984
thorax -3.51119 2.58896 -3.78404
lowerneck -20.9854 -5.04821 9.08462
upperneck 27.5312 -9.84582 -1.95388
head 12.0084 -3.67116 -3.79965
rclavicle -2.16427e-014 -1.43125e-014
rhumerus -38.0259 -19.8345 -75.7766
rradius 31.9341
rwrist -6.83382
rhand -16.2663 -2.781
rfingers 7.12502
rthumb 9.94324 -32.5262
lclavicle -2.16427e-014 -1.43125e-014
lhumerus -36.956 0.966162 79.0115
lradius 19.9736
lwrist 6.57466
lhand -13.4959 0.518206
lfingers 7.12502
lthumb 12.6151 30.1173
rfemur -11.8745 -4.75134 20.9625
rtibia 30.4708
rfoot -18.9512 -11.6463
rtoes -3.37605
lfemur -12.9745 -4.15022 -19.8247
ltibia 30.7875
lfoot -15.4126 15.6172
ltoes -4.42475
3582
root 0.434964 17.8567 -29.9186 545.003 174.668 178.124
lowerback 2.71121 3.95081 2.46297
upperback -2.35256 5.32241 -2.0121
thorax -3.52791 2.56406 -3.73972
lowerneck -20.9619 -5.02566 9.1407
upperneck 27.5354 -9.81938 -1.99373
head 12.0015 -3.65979 -3.81853
rclavicle 5.1684e-015 -1.19271e-014
rhumerus -38.0608 -19.5786 -75.8623
rradius 32.2661
rwrist -7.08341
rhand -16.2445 -2.72918
rfingers 7.12502
rthumb 9.96433 -32.4733
lclavicle 5.1684e-015 -1.19271e-014
lhumerus -37.039 1.2196 78.8808
lradius 19.8367
lwrist 6.57324
lhand -13.5053 0.611824
lfingers 7.12502
lthumb 12.6061 30.2115
rfemur -11.8975 -4.64511 20.9405
rtibia 30.6268
rfoot -18.9819 -11.7612
rtoes -3.49351
lfemur -12.8884 -4.07077 -19.8602
ltibia 30.7861
lfoot -15.5082 15.6455
ltoes -4.3061
3583
root 0.461155 17.8495 -29.9002 544.998 174.817 178.067
lowerback 2.60925 3.67658 2.29719
upperback -2.35438 4.95707 -1.6774
thorax -3.54389 2.38942 -3.27927
lowerneck -20.8788 -4.60046 9.12087
upperneck 27.4921 -9.07451 -2.3829
head 11.9914 -3.38813 -3.84863
rclavicle -7.05686e-015 -2.38542e-014
rhumerus -37.824 -18.3997 -75.9583
rradius 32.4929
rwrist -7.35862
rhand -16.2084 -2.67183
rfingers 7.12502
rthumb 9.99913 -32.4143
lclavicle -7.05686e-015 -2.38542e-014
lhumerus -37.3615 2.55033 78.7201
lradius 19.7072
lwrist 6.32922
lhand -13.5301 0.768669
lfingers 7.12502
lthumb 12.5821 30.3698
rfemur -11.9335 -4.53861 20.9213
rtibia 30.8152
rfoot -19.0215 -11.8672
rtoes -3.63041
lfemur -12.7876 -3.9898 -19.8928
ltibia 30.7789
lfoot -15.6238 15.669
ltoes -4.1823
3584
root 0.48785 17.8418 -29.8821 544.99 174.963 178.02
lowerback 2.53991 3.43712 2.15521
upperback -2.35162 4.63817 -1.40696
thorax -3.55722 2.23698 -2.90276
lowerneck -20.7938 -4.2389 9.14115
upperneck 27.4146 -8.45924 -2.68674
head 11.9661 -3.15941 -3.87053
rclavicle -8.57259e-015 -3.57812e-015
rhumerus -37.6333 -17.4054 -76.0574
rradius 32.7281
rwrist -7.60244
rhand -16.1829 -2.62825
rfingers 7.12502
rthumb 10.0238 -32.3696
lclavicle -8.57259e-015 -3.57812e-015
lhumerus -37.6014 3.6488 78.5667
lradius 19.5789
lwrist 6.11231
lhand -13.5437 1.00109
lfingers 7.12502
lthumb 12.5691 30.603
rfemur -11.9893 -4.43913 20.8891
rtibia 31.0504
rfoot -19.0755 -11.9678
rtoes -3.78065
lfemur -12.6708 -3.90615 -19.9373
ltibia 30.7566
lfoot -15.7479 15.6747
ltoes -4.0753
3585
root 0.515091 17.8337 -29.8639 544.982 175.12 177.984
lowerback 2.4305 3.01506 1.86486
upperback -2.32128 4.07542 -0.920194
thorax -3.55385 1.97028 -2.2066
lowerneck -20.7051 -3.57049 9.14881
upperneck 27.307 -7.31782 -3.26238
head 11.9546 -2.73512 -3.91609
rclavicle -9.92681e-015 1.19271e-014
rhumerus -37.2132 -15.7296 -76.1658
rradius 32.8758
rwrist -7.87117
rhand -16.1576 -2.5655
rfingers 7.12502
rthumb 10.0481 -32.3056
lclavicle -9.92681e-015 1.19271e-014
lhumerus -37.9958 5.55022 78.3645
lradius 19.4608
lwrist 5.7324
lhand -13.5407 1.15568
lfingers 7.12502
lthumb 12.572 30.7574
rfemur -12.0772 -4.3479 20.8418
rtibia 31.3452
rfoot -19.141 -12.0516
rtoes -3.93502
lfemur -12.5375 -3.7946 -19.9946
ltibia 30.7147
lfoot -15.8753 15.6559
ltoes -3.99888
3586
root 0.543787 17.8248 -29.8446 544.957 175.296 177.993
lowerback 2.33268 2.54291 1.49605
upperback -2.27594 3.44473 -0.391211
thorax -3.53587 1.67289 -1.42082
lowerneck -20.5979 -2.81176 9.19189
upperneck 27.1622 -6.03585 -3.91131
head 11.9408 -2.25441 -3.97296
rclavicle -1.50952e-015 -1.13307e-014
rhumerus -36.7424 -13.8763 -76.2654
rradius 32.9914
rwrist -8.14569
rhand -16.1396 -2.50315
rfingers 7.12502
rthumb 10.0654 -32.2424
lclavicle -1.50952e-015 -1.13307e-014
lhumerus -38.4415 7.63564 78.1389
lradius 19.3647
lwrist 5.32099
lhand -13.5353 1.22572
lfingers 7.12502
lthumb 12.5771 30.8271
rfemur -12.1795 -4.28688 20.7319
rtibia 31.7128
rfoot -19.2208 -12.0916
rtoes -4.09643
lfemur -12.3594 -3.67452 -20.1111
ltibia 30.6492
lfoot -15.9952 15.6501
ltoes -3.95915
3587
root 0.572404 17.8155 -29.8259 544.937 175.454 178.041
lowerback 2.32348 2.24537 1.21628
upperback -2.25946 3.04527 -0.100813
thorax -3.55681 1.48476 -0.946095
lowerneck -20.5122 -2.35653 9.27132
upperneck 27.039 -5.29591 -4.25973
head 11.9181 -1.96856 -4.00266
rclavicle 4.82488e-014 1.19271e-015
rhumerus -36.5054 -12.7727 -76.3273
rradius 33.1438
rwrist -8.35255
rhand -16.117 -2.42136
rfingers 7.12502
rthumb 10.0873 -32.1596
lclavicle 4.82488e-014 1.19271e-015
lhumerus -38.6774 8.88623 77.9539
lradius 19.2494
lwrist 5.0963
lhand -13.5223 1.29094
lfingers 7.12502
lthumb 12.5897 30.8916
rfemur -12.326 -4.26272 20.5769
rtibia 32.1605
rfoot -19.3114 -12.1223
rtoes -4.27476
lfemur -12.1742 -3.54887 -20.2701
ltibia 30.5623
lfoot -16.0963 15.6262
ltoes -3.9563
3588
root 0.602006 17.8052 -29.8073 544.909 175.635 178.125
lowerback 2.36991 2.10857 1.02562
upperback -2.23909 2.85804 -0.0167385
thorax -3.57972 1.39736 -0.745397
lowerneck -20.5411 -2.13207 9.40717
upperneck 26.9585 -4.98696 -4.38544
head 11.9102 -1.83681 -4.0255
rclavicle -2.72739e-014 -4.17448e-015
rhumerus -36.42 -12.3378 -76.3653
rradius 33.3053
rwrist -8.47972
rhand -16.1034 -2.33067
rfingers 7.12502
rthumb 10.1004 -32.0683
lclavicle -2.72739e-014 -4.17448e-015
lhumerus -38.703 9.43656 77.8218
lradius 19.1371
lwrist 5.04904
lhand -13.4813 1.29069
lfingers 7.12502
lthumb 12.6292 30.8889
rfemur -12.5162 -4.26169 20.3746
rtibia 32.6966
rfoot -19.3958 -12.1336
rtoes -4.52166
lfemur -11.9677 -3.39476 -20.4742
ltibia 30.4555
lfoot -16.1929 15.6025
ltoes -3.9565
3589
root 0.631874 17.7941 -29.7888 544.873 175.81 178.238
lowerback 2.48427 2.18145 0.960788
upperback -2.2603 2.94819 -0.196567
thorax -3.6584 1.44067 -0.904163
lowerneck -20.5247 -2.28592 9.53271
upperneck 26.9091 -5.31609 -4.16015
head 11.8671 -1.94322 -4.00609
rclavicle -1.96238e-014 -1.27222e-014
rhumerus -36.6524 -12.7655 -76.3494
rradius 33.5094
rwrist -8.50757
rhand -16.0864 -2.23405
rfingers 7.12502
rthumb 10.1168 -31.9708
lclavicle -1.96238e-014 -1.27222e-014
lhumerus -38.5258 9.05211 77.7506
lradius 19.008
lwrist 5.20393
lhand -13.4215 1.28244
lfingers 7.12502
lthumb 12.6868 30.8771
rfemur -12.7453 -4.28656 20.1381
rtibia 33.324
rfoot -19.4801 -12.1507
rtoes -4.82552
lfemur -11.7449 -3.23721 -20.7112
ltibia 30.3352
lfoot -16.292 15.5743
ltoes -3.95962
3590
root 0.661544 17.7822 -29.7711 544.84 175.984 178.384
lowerback 2.66655 2.4685 1.02711
upperback -2.2992 3.32087 -0.654606
thorax -3.76331 1.61693 -1.44165
lowerneck -20.5862 -2.7952 9.7014
upperneck 26.9202 -6.27628 -3.60589
head 11.827 -2.28034 -3.96531
rclavicle 5.03174e-015 5.96354e-015
rhumerus -37.1529 -14.0889 -76.2988
rradius 33.7605
rwrist -8.43114
rhand -16.0743 -2.1475
rfingers 7.12502
rthumb 10.1285 -31.8837
lclavicle 5.03174e-015 5.96354e-015
lhumerus -38.0783 7.69313 77.7507
lradius 18.8797
lwrist 5.59744
lhand -13.3252 1.29722
lfingers 7.12502
lthumb 12.7797 30.8861
rfemur -13.0338 -4.32691 19.8665
rtibia 34.0448
rfoot -19.5481 -12.1783
rtoes -5.19571
lfemur -11.5241 -3.05653 -20.9811
ltibia 30.2045
lfoot -16.4089 15.5217
ltoes -3.95195
3591
root 0.691417 17.7696 -29.7533 544.804 176.169 178.565
lowerback 2.85704 2.73528 1.02314
upperback -2.30648 3.66329 -1.09418
thorax -3.84005 1.78049 -1.92088
lowerneck -20.6896 -3.30763 9.79735
upperneck 26.8945 -7.2294 -3.01723
head 11.7919 -2.61806 -3.89863
rclavicle -1.91082e-014 4.77083e-015
rhumerus -37.5863 -15.3734 -76.2353
rradius 33.9783
rwrist -8.32553
rhand -16.0834 -2.09396
rfingers 7.12502
rthumb 10.1196 -31.8306
lclavicle -1.91082e-014 4.77083e-015
lhumerus -37.58 6.41649 77.7605
lradius 18.7723
lwrist 6.0384
lhand -13.2261 1.33792
lfingers 7.12502
lthumb 12.8752 30.9208
rfemur -13.3712 -4.3773 19.5506
rtibia 34.8579
rfoot -19.6068 -12.2031
rtoes -5.60137
lfemur -11.2927 -2.85687 -21.2923
ltibia 30.0688
lfoot -16.5544 15.4578
ltoes -3.92662
3592
root 0.721139 17.7565 -29.7351 544.755 176.362 178.77
lowerback 3.07077 3.02116 1.00826
upperback -2.3198 4.02894 -1.56753
thorax -3.92826 1.95519 -2.43398
lowerneck -20.7507 -3.86414 9.9371
upperneck 26.8577 -8.25754 -2.41591
head 11.7445 -2.98401 -3.84284
rclavicle -7.48549e-014 9.14409e-015
rhumerus -38.1101 -16.7267 -76.1574
rradius 34.2244
rwrist -8.22813
rhand -16.1141 -2.08365
rfingers 7.12502
rthumb 10.0901 -31.8217
lclavicle -7.48549e-014 9.14409e-015
lhumerus -37.064 4.99664 77.7795
lradius 18.6914
lwrist 6.56616
lhand -13.1076 1.4875
lfingers 7.12502
lthumb 12.9895 31.0631
rfemur -13.7448 -4.41793 19.2079
rtibia 35.7632
rfoot -19.6621 -12.2372
rtoes -6.03364
lfemur -11.0435 -2.60251 -21.6259
ltibia 29.929
lfoot -16.723 15.3549
ltoes -3.9113
